HIERARCHY
ROOT Bip001_Pelvis
{
  OFFSET 7.937 94.8971 -8.5489
  CHANNELS 6 Xposition Yposition Zposition Zrotation Xrotation Yrotation
  JOINT Bip001_Spine
  {
    OFFSET 1.44608e-005 10.4157 -0.0118244
    CHANNELS 3 Zrotation Xrotation Yrotation
    JOINT Bip001_L_Thigh
    {
      OFFSET 11.2582 -10.4157 0.0118432
      CHANNELS 3 Zrotation Xrotation Yrotation
      JOINT Bip001_L_Calf
      {
        OFFSET -0.720717 -44.8687 0.366937
        CHANNELS 3 Zrotation Xrotation Yrotation
        JOINT Bip001_L_Foot
        {
          OFFSET -0.664439 -41.3745 -3.62995
          CHANNELS 3 Zrotation Xrotation Yrotation
          JOINT Bip001_L_Toe0
          {
            OFFSET 0.0541047 -10.4146 13.4033
            CHANNELS 3 Zrotation Xrotation Yrotation
            End Site
            {
              OFFSET -1.04503e-005 0 7.70137
            }
          }
        }
      }
    }
    JOINT Bip001_R_Thigh
    {
      OFFSET -11.2582 -10.4156 0.0118122
      CHANNELS 3 Zrotation Xrotation Yrotation
      JOINT Bip001_R_Calf
      {
        OFFSET 0.72059 -44.8687 0.36676
        CHANNELS 3 Zrotation Xrotation Yrotation
        JOINT Bip001_R_Foot
        {
          OFFSET 0.664321 -41.3745 -3.62979
          CHANNELS 3 Zrotation Xrotation Yrotation
          JOINT Bip001_R_Toe0
          {
            OFFSET -0.05417 -10.4146 13.4033
            CHANNELS 3 Zrotation Xrotation Yrotation
            End Site
            {
              OFFSET -1.04873e-005 0 7.70137
            }
          }
        }
      }
    }
    JOINT Bip001_Spine1
    {
      OFFSET 1.90638e-005 14.8539 1.10727
      CHANNELS 3 Zrotation Xrotation Yrotation
      JOINT Bip001_Spine2
      {
        OFFSET 2.28934e-005 14.7848 -1.7233
        CHANNELS 3 Zrotation Xrotation Yrotation
        JOINT Bip001_Neck
        {
          OFFSET 2.24514e-005 15.6905 -0.498826
          CHANNELS 3 Zrotation Xrotation Yrotation
          JOINT Bip001_L_Clavicle
          {
            OFFSET 6.17691 -0.000591152 0.00852867
            CHANNELS 3 Zrotation Xrotation Yrotation
            JOINT Bip001_L_UpperArm
            {
              OFFSET 11.773 -0.0611878 0.00197697
              CHANNELS 3 Zrotation Xrotation Yrotation
              JOINT Bip001_L_Forearm
              {
                OFFSET 26.4515 0.0817568 -2.19579
                CHANNELS 3 Zrotation Xrotation Yrotation
                JOINT Bip001_L_Hand
                {
                  OFFSET 32.8677 0.156744 1.67112
                  CHANNELS 3 Zrotation Xrotation Yrotation
                  JOINT Bip001_L_Finger0
                  {
                    OFFSET 6.16268 -2.25226 6.01674
                    CHANNELS 3 Zrotation Xrotation Yrotation
                    End Site
                    {
                      OFFSET 4.30499 -1.46662 0.618148
                    }
                  }
                  JOINT Bip001_L_Finger1
                  {
                    OFFSET 11.2957 -0.718374 -0.201963
                    CHANNELS 3 Zrotation Xrotation Yrotation
                    End Site
                    {
                      OFFSET 6.31952 -0.405163 -0.0802303
                    }
                  }
                }
              }
            }
          }
          JOINT Bip001_R_Clavicle
          {
            OFFSET -6.17691 -0.000574027 0.00851165
            CHANNELS 3 Zrotation Xrotation Yrotation
            JOINT Bip001_R_UpperArm
            {
              OFFSET -11.773 -0.0611516 0.00194365
              CHANNELS 3 Zrotation Xrotation Yrotation
              JOINT Bip001_R_Forearm
              {
                OFFSET -26.4514 0.0822334 -2.19736
                CHANNELS 3 Zrotation Xrotation Yrotation
                JOINT Bip001_R_Hand
                {
                  OFFSET -32.8677 0.156817 1.67144
                  CHANNELS 3 Zrotation Xrotation Yrotation
                  JOINT Bip001_R_Finger0
                  {
                    OFFSET -6.1627 -2.25224 6.0167
                    CHANNELS 3 Zrotation Xrotation Yrotation
                    End Site
                    {
                      OFFSET -4.30499 -1.46662 0.618134
                    }
                  }
                  JOINT Bip001_R_Finger1
                  {
                    OFFSET -11.2958 -0.718344 -0.201994
                    CHANNELS 3 Zrotation Xrotation Yrotation
                    End Site
                    {
                      OFFSET -6.31952 -0.405146 -0.0802475
                    }
                  }
                }
              }
            }
          }
          JOINT Bip001_Head
          {
            OFFSET 1.11782e-005 11.4912 2.09908
            CHANNELS 3 Zrotation Xrotation Yrotation
            End Site
            {
              OFFSET 2.95144e-005 21.2823 -2.83069e-005
            }
          }
        }
      }
    }
  }
}
MOTION
Frames:	6
Frame Time:	0.04
8.29013 95.2188 -8.904 -0.0801479 -3.04845 -1.38726 0.0525753 0.84406 -0.30541 5.35009 -6.45409 11.2375 -0.444785 16.8796 -0.344758 -3.14332 -7.1096 -0.726224 0.731777 -9.79597 0.467997 -8.38469 -5.70339 0.235697 0.0526038 16.4153 4.77669 1.37306 -8.38239 -9.29286 -0.996845 -11.3503 0.0754469 -0.0126321 1.68816 -0.61711 -0.012632 1.68816 -0.61711 -1.18656 -3.52475 1.63954 -25.0753 10.3202 -15.6004 -56.4844 41.1253 12.9048 14.1001 -0.04544 -29.562 -2.27901 -0.439233 -3.59984 -3.18055e-015 -6.36111e-015 3.97569e-015 1.76556e-031 -3.18056e-015 3.18055e-015 33.9371 8.44804 9.40083 52.2772 31.3725 -12.5976 11.912 -41.7257 38.2674 4.869 -0.855833 -16.2519 -1.49088e-016 -9.93923e-017 -7.95139e-016 -1.30452e-016 -1.98785e-016 -7.95139e-016 -3.41055 -2.55111 1.97312 
8.20377 95.0606 -8.95615 -0.347574 -3.04477 -2.96762 0.175416 0.862508 -0.416786 5.67984 -6.6885 11.5377 -0.546361 17.9849 -0.0176151 -3.28346 -7.97463 0.0730851 0.777276 -9.72039 0.681093 -8.0726 -6.64869 0.827671 -0.212607 17.39 5.55088 1.26533 -8.63737 -8.88283 -0.94312 -11.3503 -0.000466162 0.238612 1.72413 -0.842568 0.238611 1.72413 -0.842566 -1.18406 -3.36305 2.63996 -24.9467 10.5607 -16.456 -56.6514 40.6639 13.6556 14.8441 1.1307 -29.9075 -2.49377 -0.394044 -3.69893 3.18055e-015 3.18055e-015 -7.95139e-016 2.64834e-031 6.36111e-015 -2.38542e-015 33.7427 7.53051 8.15064 50.9275 29.4447 -13.4008 10.8418 -40.4975 38.2184 7.80047 -1.74228 -14.0328 -3.47873e-016 -1.59028e-015 -1.59028e-015 -1.49088e-016 -7.95139e-016 -0 -3.58459 -2.80288 2.9788 
8.26511 94.829 -8.92266 -0.609338 -3.06069 -4.53085 0.253039 0.890115 -0.474224 6.02268 -7.04985 12.356 -0.535412 19.5485 -0.0138592 -3.3682 -9.117 0.647628 0.86277 -9.67969 0.833761 -7.78843 -7.65867 2.69562 -0.043737 18.6646 5.4732 1.06827 -9.09075 -8.97415 -0.828988 -11.3533 -0.123688 0.409441 1.77879 -0.958665 0.41037 1.78131 -0.958599 -0.904287 -2.99647 3.48681 -24.9398 10.626 -17.5716 -56.0487 40.2057 13.5887 14.492 2.79352 -29.3707 -2.75054 -0.433492 -4.78662 0 7.95139e-015 -0 -3.18055e-015 7.95139e-015 1.59028e-015 33.0803 6.28628 6.45198 49.8455 27.6894 -14.5287 12.6424 -42.865 40.8663 10.8902 -3.14731 -10.8261 -3.97569e-016 1.59028e-015 -1.59028e-015 -7.95139e-016 1.59028e-015 -1.59028e-015 -4.04996 -3.30594 3.96066 
8.4267 94.4581 -8.86209 -0.775355 -3.12208 -5.77862 0.243622 0.896021 -0.638508 6.45499 -7.66398 12.9529 -0.749736 21.7503 0.0789438 -3.25613 -10.5554 1.07228 0.923408 -9.64754 1.12898 -7.48798 -8.87795 3.62099 -0.219747 20.7017 6.71841 0.620602 -9.95974 -9.49413 -0.527114 -11.377 -0.349555 0.431532 1.78959 -1.28521 0.432612 1.78959 -1.28512 -0.451369 -2.14958 4.33078 -24.722 10.1164 -18.7324 -57.274 42.2669 15.4945 14.244 1.03327 -29.0844 -3.77014 -0.621539 -5.52833 3.18055e-015 -3.18055e-015 5.1684e-015 6.36111e-015 -3.18056e-015 3.97569e-015 32.4461 4.6381 4.85712 47.2025 21.7928 -15.3231 16.1653 -43.7049 44.2093 12.0671 -3.54532 -9.94638 -1.59028e-015 6.36111e-015 -6.36111e-015 -2.38542e-015 3.18056e-015 -7.95139e-015 -4.39966 -3.93198 4.96589 
8.63423 93.9733 -8.72927 -1.0497 -3.20786 -6.96005 0.278089 0.934815 -0.854429 7.05845 -8.39744 14.3462 -0.782747 24.4187 -0.264719 -3.14007 -12.3238 1.0846 0.97649 -9.56964 1.42812 -7.0658 -10.1848 4.07027 -0.826427 23.0756 7.22467 0.600866 -11.0403 -8.79364 -0.239136 -11.4397 -0.43123 0.535868 1.86478 -1.71594 0.535871 1.86479 -1.71595 -0.400291 -1.45496 5.45461 -24.2571 9.80562 -19.895 -58.5749 43.3473 17.358 14.291 -0.378406 -28.8689 -4.37765 -0.781313 -4.98805 -1.59028e-015 0 3.97569e-016 -1.59028e-015 -1.59028e-015 7.95139e-016 31.7173 2.98005 3.05179 44.1776 15.8687 -16.3249 19.073 -44.2873 47.259 11.4324 -3.91067 -10.4343 6.36111e-015 -6.36111e-015 4.77083e-015 6.36111e-015 -3.18056e-015 6.36111e-015 -4.4673 -4.59735 6.08345 
8.96225 93.2128 -8.73767 -1.43051 -3.03445 -8.25892 0.431735 0.935395 -1.01122 8.14666 -9.96612 11.5829 -3.86558 28.2131 3.16268 -2.12705 -14.6363 2.44638 0.801945 -9.50355 1.7994 -6.79962 -12.287 4.46589 -1.19478 26.4128 7.61774 0.492248 -12.5019 -7.84989 0.0681973 -11.4995 -0.556333 0.834188 1.86333 -2.03151 0.833415 1.86327 -2.03156 -0.953245 -0.719507 6.63229 -23.5314 9.50049 -21.1365 -59.3634 43.4485 18.5946 14.3009 -0.566881 -28.4392 -4.17819 -0.871396 -4.24274 -1.59028e-015 0 -1.59028e-015 -1.59028e-015 -1.59028e-015 -7.95139e-016 30.6348 1.18909 1.08123 40.5647 8.0492 -18.2837 22.1164 -43.203 51.8847 9.69373 -4.72501 -12.4207 -1.59028e-015 0 3.18055e-015 -0 0 1.59028e-015 -4.5456 -5.47906 7.08335 
